<?xml version="1.0" encoding="UTF-8" standalone="no"?>
<!-- Created with Inkscape (http://www.inkscape.org/) -->

<svg
   version="1.1"
   id="svg1"
   width="173.36"
   height="112.8932"
   viewBox="0 0 173.36 112.89319"
   sodipodi:docname="9f4bc6d1b7478a63f670c9805d90dde5.eps"
   xmlns:inkscape="http://www.inkscape.org/namespaces/inkscape"
   xmlns:sodipodi="http://sodipodi.sourceforge.net/DTD/sodipodi-0.dtd"
   xmlns="http://www.w3.org/2000/svg"
   xmlns:svg="http://www.w3.org/2000/svg">
  <defs
     id="defs1" />
  <sodipodi:namedview
     id="namedview1"
     pagecolor="#ffffff"
     bordercolor="#000000"
     borderopacity="0.25"
     inkscape:showpageshadow="2"
     inkscape:pageopacity="0.0"
     inkscape:pagecheckerboard="0"
     inkscape:deskcolor="#d1d1d1">
    <inkscape:page
       x="0"
       y="-0.00013282232"
       inkscape:label="1"
       id="page1"
       width="173.36"
       height="112.89333"
       margin="0"
       bleed="0" />
  </sodipodi:namedview>
  <g
     id="g1"
     inkscape:groupmode="layer"
     inkscape:label="1"
     transform="translate(0,-1.3282233e-4)">
    <g
       id="group-R5">
      <path
         id="path2"
         d="m 784.496,810.285 c -0.23,-0.305 -0.476,-0.629 -0.711,-0.93 -11.965,-15.246 -24.738,-30.07 -37.992,-44.089 -13.059,-13.758 -27.473,-26.508 -41.418,-38.836 l -0.937,-0.832 c -1.325,-1.164 -2.633,-2.332 -3.95,-3.496 -5.828,-5.172 -11.855,-10.52 -18.148,-15.469 -5.871,-4.793 -12.113,-9.414 -18.152,-13.887 -1.704,-1.262 -3.411,-2.523 -5.106,-3.789 -17.961,-13.266 -31.57,-25.328 -42.852,-37.98 -7.371,-8.122 -13.949,-17.379 -20.316,-26.332 -4.73,-6.661 -9.625,-13.543 -14.844,-19.973 -5.937,-7.324 -12.511,-14.301 -20.09,-21.324 -6.781,-6.453 -14.105,-12.957 -21.742,-19.309 -12.39,-10.223 -29.121,-23.293 -48.726,-33.754 l -1.91,-1.015 -5.231,5.238 1.016,1.902 c 10.453,19.61 23.527,36.336 33.746,48.719 6.355,7.644 12.859,14.969 19.34,21.781 6.992,7.551 13.965,14.121 21.297,20.063 6.429,5.218 13.316,10.113 19.98,14.847 8.953,6.364 18.207,12.942 26.309,20.293 12.664,11.293 24.73,24.907 37.984,42.86 1.273,1.703 2.527,3.398 3.789,5.097 4.473,6.043 9.102,12.289 13.93,18.207 4.922,6.262 10.269,12.289 15.441,18.121 1.164,1.313 2.332,2.622 3.492,3.938 l 0.84,0.953 c 12.328,13.938 25.074,28.352 38.828,41.402 11.918,11.274 24.45,22.168 37.297,32.536 -31.23,13.769 -65.734,21.472 -102.055,21.472 -139.882,0 -253.281,-113.398 -253.281,-253.281 0,-91.91 48.965,-172.383 122.227,-216.773 5.265,6.23 10.617,12.226 15.961,17.847 6.843,7.399 13.672,13.828 20.859,19.625 6.305,5.094 13.063,9.863 19.602,14.473 8.785,6.195 17.867,12.601 25.793,19.781 12.406,11.031 24.183,24.359 37.093,41.961 1.246,1.676 2.473,3.344 3.704,5.016 4.359,5.922 8.867,12.05 13.574,17.851 4.785,6.121 10.004,12.012 15.043,17.711 1.152,1.301 2.3,2.602 3.449,3.903 l 0.848,0.96 c 12.035,13.649 24.48,27.758 37.933,40.512 4.367,4.121 8.93,8.094 13.442,12.106 -9.813,-4.078 -19.836,-7.672 -29.692,-10.961 l -0.879,-0.293 c -1.211,-0.403 -2.414,-0.809 -3.621,-1.211 -5.351,-1.801 -10.894,-3.668 -16.594,-5.074 -5.3,-1.454 -10.871,-2.602 -16.25,-3.707 -1.507,-0.313 -3.011,-0.625 -4.519,-0.942 -15.184,-3.012 -27.879,-7.269 -38.852,-13.019 -6.945,-3.551 -13.554,-8.45 -19.941,-13.192 -4.828,-3.574 -9.816,-7.273 -14.992,-10.441 -5.895,-3.625 -12.203,-6.66 -19.285,-9.278 -6.297,-2.46 -13.047,-4.734 -20,-6.738 -12.086,-3.394 -26.649,-6.875 -43.164,-6.972 l -1.926,-0.012 -2.75,6.379 1.336,1.394 c 11.406,11.938 23.937,20.137 34.687,26.586 6.227,3.684 12.512,7.028 18.692,9.945 6.718,3.329 13.257,5.833 19.941,7.633 5.852,1.586 11.969,2.676 17.879,3.727 7.836,1.39 15.937,2.832 23.254,5.437 11.742,4.036 23.554,10.344 36.14,19.293 1.286,0.891 2.536,1.766 3.786,2.641 4.511,3.16 9.175,6.426 13.945,9.332 4.879,3.137 10.035,5.883 15.027,8.543 1.117,0.598 2.235,1.191 3.356,1.793 l 0.812,0.437 c 11.883,6.368 24.168,12.95 36.988,17.934 13.036,5.031 26.586,9.285 40.286,12.656 8.101,1.981 14.789,3.36 21.062,4.34 8.34,1.418 15.332,2.195 21.969,2.442 l 1.996,0.074 0.164,-0.391 0.656,0.371 5.305,-5.308 -1.082,-1.926 c -10.004,-17.809 -22.094,-34.02 -32.633,-47.817 -11.68,-14.964 -24.16,-29.492 -37.109,-43.203 -12.762,-13.465 -26.875,-25.914 -40.531,-37.957 l -0.946,-0.832 c -1.289,-1.136 -2.574,-2.273 -3.855,-3.41 -5.719,-5.055 -11.625,-10.281 -17.801,-15.113 -5.77,-4.684 -11.902,-9.196 -17.836,-13.559 -1.656,-1.222 -3.32,-2.445 -4.98,-3.676 -17.614,-12.918 -30.938,-24.699 -41.954,-37.082 -7.199,-7.945 -13.597,-17.027 -19.796,-25.812 -4.61,-6.535 -9.375,-13.297 -14.477,-19.606 -5.793,-7.183 -12.227,-14.019 -19.652,-20.886 -3.297,-3.133 -6.727,-6.278 -10.262,-9.41 31.176,-13.715 65.609,-21.379 101.851,-21.379 139.883,0 253.282,113.394 253.282,253.277 0,91.98 -49.039,172.5 -122.391,216.867"
         style="fill:#040606;fill-opacity:1;fill-rule:nonzero;stroke:none"
         transform="matrix(0.13333333,0,0,-0.13333333,0,112.89333)" />
      <path
         id="path3"
         d="m 306.383,128.191 h -58.637 v 91.618 h 58.637 v -17.864 h -40.008 v -18.933 h 38.633 v -17.867 h -38.633 v -19.086 h 40.008 v -17.868"
         style="fill:#040606;fill-opacity:1;fill-rule:nonzero;stroke:none"
         transform="matrix(0.13333333,0,0,-0.13333333,0,112.89333)" />
      <path
         id="path4"
         d="m 388.992,128.191 h -18.781 l -29.625,53.903 v -53.903 h -18.629 v 91.618 h 19.09 l 29.316,-54.664 v 54.664 h 18.629 v -91.618"
         style="fill:#040606;fill-opacity:1;fill-rule:nonzero;stroke:none"
         transform="matrix(0.13333333,0,0,-0.13333333,0,112.89333)" />
      <path
         id="path5"
         d="m 467.02,201.945 h -23.821 v -73.754 h -18.781 v 73.754 h -23.977 v 17.864 h 66.579 v -17.864"
         style="fill:#040606;fill-opacity:1;fill-rule:nonzero;stroke:none"
         transform="matrix(0.13333333,0,0,-0.13333333,0,112.89333)" />
      <path
         id="path6"
         d="m 525.348,184.691 v 13.59 c -1.02,1.625 -2.344,2.848 -3.969,3.664 h -24.434 v -20.922 h 24.434 c 0.305,0 0.937,0.434 1.906,1.301 0.969,0.864 1.656,1.653 2.063,2.367 z m 18.629,0.153 c 0,-3.77 -0.969,-7.078 -2.903,-9.926 -0.609,-1.02 -1.855,-2.445 -3.738,-4.277 -1.887,-1.832 -3.387,-3.157 -4.508,-3.969 -1.32,-0.918 -2.492,-1.578 -3.512,-1.984 l 19.243,-36.497 h -20.766 l -17.41,34.969 h -13.438 v -34.969 h -18.629 v 91.618 h 43.063 c 4.476,0 8.293,-1.168 11.449,-3.512 3.055,-2.34 5.805,-5.141 8.246,-8.399 1.934,-2.644 2.903,-6.007 2.903,-10.078 v -12.976"
         style="fill:#040606;fill-opacity:1;fill-rule:nonzero;stroke:none"
         transform="matrix(0.13333333,0,0,-0.13333333,0,112.89333)" />
      <path
         id="path7"
         d="m 617.574,128.191 h -58.633 v 91.618 h 58.633 V 201.945 H 577.57 v -18.933 h 38.629 V 165.145 H 577.57 v -19.086 h 40.004 v -17.868"
         style="fill:#040606;fill-opacity:1;fill-rule:nonzero;stroke:none"
         transform="matrix(0.13333333,0,0,-0.13333333,0,112.89333)" />
      <path
         id="path8"
         d="m 700.184,128.191 h -18.782 l -29.625,53.903 v -53.903 h -18.629 v 91.618 h 19.09 l 29.317,-54.664 v 54.664 h 18.629 v -91.618"
         style="fill:#040606;fill-opacity:1;fill-rule:nonzero;stroke:none"
         transform="matrix(0.13333333,0,0,-0.13333333,0,112.89333)" />
      <path
         id="path9"
         d="m 759.582,163.617 -10.383,29.473 c -1.121,-3.262 -2.828,-8.172 -5.117,-14.738 -2.289,-6.567 -3.996,-11.477 -5.113,-14.735 z m 31.609,-35.426 H 771.34 l -6.11,17.563 h -31.914 c -0.609,-1.938 -1.656,-4.863 -3.128,-8.781 -1.477,-3.922 -2.52,-6.848 -3.129,-8.782 h -19.852 l 31.762,91.618 h 20.613 l 31.609,-91.618"
         style="fill:#040606;fill-opacity:1;fill-rule:nonzero;stroke:none"
         transform="matrix(0.13333333,0,0,-0.13333333,0,112.89333)" />
      <path
         id="path10"
         d="m 847.074,184.691 v 13.59 c -1.015,1.625 -2.34,2.848 -3.969,3.664 h -24.429 v -20.922 h 24.429 c 0.305,0 0.942,0.434 1.911,1.301 0.964,0.864 1.652,1.653 2.058,2.367 z m 18.629,0.153 c 0,-3.77 -0.969,-7.078 -2.898,-9.926 -0.614,-1.02 -1.86,-2.445 -3.742,-4.277 -1.883,-1.832 -3.387,-3.157 -4.504,-3.969 -1.325,-0.918 -2.496,-1.578 -3.512,-1.984 l 19.238,-36.497 H 849.52 l -17.411,34.969 h -13.433 v -34.969 h -18.629 v 91.618 h 43.058 c 4.481,0 8.297,-1.168 11.454,-3.512 3.054,-2.34 5.8,-5.141 8.246,-8.399 1.929,-2.644 2.898,-6.007 2.898,-10.078 v -12.976"
         style="fill:#040606;fill-opacity:1;fill-rule:nonzero;stroke:none"
         transform="matrix(0.13333333,0,0,-0.13333333,0,112.89333)" />
      <path
         id="path11"
         d="m 972.895,128.191 h -58.633 v 91.618 h 58.633 v -17.864 h -40.004 v -18.933 h 38.629 v -17.867 h -38.629 v -19.086 h 40.004 v -17.868"
         style="fill:#040606;fill-opacity:1;fill-rule:nonzero;stroke:none"
         transform="matrix(0.13333333,0,0,-0.13333333,0,112.89333)" />
      <path
         id="path12"
         d="m 1055.05,150.793 c 0,-3.871 -0.82,-7.078 -2.45,-9.621 -0.71,-1.02 -2.31,-2.824 -4.81,-5.422 -2.49,-2.594 -4.3,-4.301 -5.42,-5.113 -3.15,-2.242 -6.97,-3.36 -11.45,-3.36 h -21.99 c -7.02,0 -13.692,4.274 -20,12.825 -0.512,0.507 -1.785,2.847 -3.821,7.023 l 18.171,4.887 c 1.32,-3.051 3.21,-5.344 5.65,-6.871 h 22.6 c 0.61,0.406 1.32,1.015 2.14,1.832 0.81,0.812 1.47,1.55 1.98,2.215 0.51,0.66 0.77,1.042 0.77,1.144 v 9.164 l -0.46,0.914 c -3.57,1.02 -9.47,2.695 -17.71,5.039 -8.25,2.34 -14.56,4.125 -18.937,5.348 -3.973,1.117 -7.079,3.355 -9.317,6.715 -2.238,3.359 -3.359,7.027 -3.359,10.996 v 8.398 c 0,3.867 0.812,7.074 2.445,9.621 0.813,1.016 2.418,2.797 4.809,5.344 2.39,2.543 4.148,4.223 5.265,5.039 3.464,2.442 7.284,3.664 11.454,3.664 h 19.55 c 4.07,0 7.91,-1.324 11.52,-3.969 3.62,-2.648 6.44,-5.55 8.48,-8.707 1.53,-2.543 2.75,-4.835 3.66,-6.871 l -17.86,-4.886 c -1.33,2.648 -3.46,4.836 -6.41,6.566 h -18.02 c -0.92,-0.406 -1.89,-1.066 -2.9,-1.984 -1.02,-0.914 -1.84,-1.703 -2.45,-2.368 -0.61,-0.664 -0.91,-1.042 -0.91,-1.144 v -8.094 l 0.45,-0.914 c 4.59,-1.324 11.18,-3.207 19.78,-5.652 8.6,-2.442 14.28,-4.071 17.02,-4.883 3.98,-1.121 7.05,-3.387 9.24,-6.797 2.19,-3.414 3.29,-7.051 3.29,-10.918 v -9.16"
         style="fill:#040606;fill-opacity:1;fill-rule:nonzero;stroke:none"
         transform="matrix(0.13333333,0,0,-0.13333333,0,112.89333)" />
      <path
         id="path13"
         d="m 47.0313,57.2617 v 13.5899 c -1.0196,1.6289 -2.3438,2.8476 -3.9688,3.664 H 18.6289 V 53.5977 h 24.4336 c 0.3047,0 0.9375,0.4296 1.9063,1.2968 0.9648,0.8633 1.6523,1.6524 2.0625,2.3672 z m 18.6289,0.1524 c 0,-3.7657 -0.9688,-7.0743 -2.9024,-9.9258 -0.6094,-1.0195 -1.8594,-2.4414 -3.7422,-4.2735 -1.8828,-1.832 -3.3828,-3.1562 -4.5039,-3.9726 -3.2578,-2.3399 -7.0742,-3.5117 -11.4492,-3.5117 H 18.6289 V 0.765625 H 0 V 92.3828 h 43.0625 c 4.4766,0 8.293,-1.1719 11.4492,-3.5117 3.0547,-2.3438 5.8047,-5.1445 8.2461,-8.3984 1.9336,-2.6485 2.9024,-6.0079 2.9024,-10.0782 V 57.4141"
         style="fill:#040606;fill-opacity:1;fill-rule:nonzero;stroke:none"
         transform="matrix(0.13333333,0,0,-0.13333333,0,112.89333)" />
      <path
         id="path14"
         d="m 115.895,36.1875 -10.383,29.4727 c -1.121,-3.2579 -2.824,-8.168 -5.114,-14.7344 C 98.1055,44.3594 96.3984,39.4453 95.2813,36.1875 Z M 147.504,0.765625 H 127.652 L 121.547,18.3242 H 89.6328 C 89.0195,16.3906 87.9766,13.4609 86.5,9.54297 85.0234,5.625 83.9805,2.69531 83.3711,0.765625 H 63.5195 L 95.2813,92.3828 H 115.895 L 147.504,0.765625"
         style="fill:#040606;fill-opacity:1;fill-rule:nonzero;stroke:none"
         transform="matrix(0.13333333,0,0,-0.13333333,0,112.89333)" />
      <path
         id="path15"
         d="m 203.391,57.2617 v 13.5899 c -1.02,1.6289 -2.344,2.8476 -3.969,3.664 H 174.988 V 53.5977 h 24.434 c 0.305,0 0.937,0.4296 1.906,1.2968 0.969,0.8633 1.652,1.6524 2.063,2.3672 z m 18.629,0.1524 c 0,-3.7657 -0.969,-7.0743 -2.903,-9.9258 -0.609,-1.0195 -1.859,-2.4414 -3.742,-4.2735 -1.883,-1.832 -3.383,-3.1562 -4.504,-3.9726 -1.324,-0.9141 -2.496,-1.5781 -3.512,-1.9844 L 226.602,0.765625 h -20.77 L 188.426,35.7305 H 174.988 V 0.765625 H 156.359 V 92.3828 h 43.063 c 4.476,0 8.293,-1.1719 11.449,-3.5117 3.055,-2.3438 5.805,-5.1445 8.246,-8.3984 1.934,-2.6485 2.903,-6.0079 2.903,-10.0782 V 57.4141"
         style="fill:#040606;fill-opacity:1;fill-rule:nonzero;stroke:none"
         transform="matrix(0.13333333,0,0,-0.13333333,0,112.89333)" />
      <path
         id="path16"
         d="m 280.5,36.1875 -10.383,29.4727 c -1.121,-3.2579 -2.824,-8.168 -5.113,-14.7344 -2.293,-6.5664 -4,-11.4805 -5.117,-14.7383 z M 312.109,0.765625 H 292.258 L 286.148,18.3242 H 254.234 C 253.625,16.3906 252.582,13.4609 251.105,9.54297 249.629,5.625 248.586,2.69531 247.977,0.765625 H 228.125 L 259.887,92.3828 H 280.5 L 312.109,0.765625"
         style="fill:#040606;fill-opacity:1;fill-rule:nonzero;stroke:none"
         transform="matrix(0.13333333,0,0,-0.13333333,0,112.89333)" />
      <path
         id="path17"
         d="m 416.703,74.5156 h -23.82 V 0.765625 H 374.102 V 74.5156 h -23.973 v 17.8672 h 66.574 V 74.5156"
         style="fill:#040606;fill-opacity:1;fill-rule:nonzero;stroke:none"
         transform="matrix(0.13333333,0,0,-0.13333333,0,112.89333)" />
      <path
         id="path18"
         d="m 477.477,23.668 v 45.8086 c -1.325,2.4453 -3.11,4.3281 -5.344,5.6523 h -20.004 c -2.242,-1.6328 -4.125,-3.5664 -5.652,-5.8047 V 23.668 c 2.039,-2.7461 3.871,-4.6328 5.5,-5.6485 h 20.003 c 1.93,1.2188 3.762,3.1016 5.497,5.6485 z m 18.781,-0.1524 c 0,-3.664 -0.918,-6.8203 -2.75,-9.4687 -1.121,-1.6289 -2.875,-3.6641 -5.266,-6.10549 -2.394,-2.44532 -4.304,-4.125 -5.726,-5.03907 C 479.258,0.96875 475.895,0 472.438,0 h -20.766 c -3.465,0 -6.824,0.96875 -10.078,2.90234 -1.528,0.91407 -3.489,2.61719 -5.879,5.11329 -2.395,2.49607 -4.152,4.50777 -5.27,6.03127 -1.73,2.5469 -2.597,5.6992 -2.597,9.4687 v 45.961 c 0,3.8672 0.867,7.0742 2.597,9.6211 1.118,1.5273 2.875,3.5117 5.27,5.957 2.39,2.4414 4.351,4.1211 5.879,5.0391 3.254,1.9296 6.613,2.8984 10.078,2.8984 h 20.766 c 3.457,0 6.82,-0.9688 10.078,-2.8984 2.644,-1.6329 6.308,-5.2969 10.992,-10.9961 1.832,-2.6485 2.75,-5.8555 2.75,-9.6211 v -45.961"
         style="fill:#040606;fill-opacity:1;fill-rule:nonzero;stroke:none"
         transform="matrix(0.13333333,0,0,-0.13333333,0,112.89333)" />
      <path
         id="path19"
         d="m 560.082,24.4336 v 43.8242 c -1.019,2.543 -2.898,4.6289 -5.648,6.2578 H 530.156 V 18.6289 h 24.278 c 2.441,1.4258 4.324,3.3594 5.648,5.8047 z m 18.629,-0.6133 c 0,-3.664 -0.816,-6.7695 -2.441,-9.3125 -1.122,-1.6289 -2.879,-3.6172 -5.27,-5.95702 -2.391,-2.34375 -4.402,-3.96875 -6.031,-4.88672 -3.664,-1.93359 -6.922,-2.898435 -9.774,-2.898435 H 511.523 V 92.3828 h 43.672 c 3.766,0 7.125,-0.918 10.078,-2.75 3.157,-2.0351 6.77,-5.75 10.844,-11.1484 1.731,-2.4414 2.594,-5.5977 2.594,-9.4649 V 23.8203"
         style="fill:#040606;fill-opacity:1;fill-rule:nonzero;stroke:none"
         transform="matrix(0.13333333,0,0,-0.13333333,0,112.89333)" />
      <path
         id="path20"
         d="m 643.457,23.668 v 45.8086 c -1.324,2.4453 -3.109,4.3281 -5.348,5.6523 h -20 c -2.242,-1.6328 -4.125,-3.5664 -5.652,-5.8047 V 23.668 c 2.035,-2.7461 3.867,-4.6328 5.496,-5.6485 h 20.004 c 1.934,1.2188 3.766,3.1016 5.5,5.6485 z m 18.781,-0.1524 c 0,-3.664 -0.918,-6.8203 -2.75,-9.4687 -1.121,-1.6289 -2.875,-3.6641 -5.265,-6.10549 -2.395,-2.44532 -4.305,-4.125 -5.727,-5.03907 C 645.234,0.96875 641.875,0 638.418,0 h -20.77 c -3.46,0 -6.82,0.96875 -10.078,2.90234 -1.523,0.91407 -3.488,2.61719 -5.879,5.11329 -2.39,2.49607 -4.148,4.50777 -5.265,6.03127 -1.735,2.5469 -2.598,5.6992 -2.598,9.4687 v 45.961 c 0,3.8672 0.863,7.0742 2.598,9.6211 1.117,1.5273 2.875,3.5117 5.265,5.957 2.391,2.4414 4.356,4.1211 5.879,5.0391 3.258,1.9296 6.618,2.8984 10.078,2.8984 h 20.77 c 3.457,0 6.816,-0.9688 10.078,-2.8984 2.645,-1.6329 6.309,-5.2969 10.992,-10.9961 1.832,-2.6485 2.75,-5.8555 2.75,-9.6211 v -45.961"
         style="fill:#040606;fill-opacity:1;fill-rule:nonzero;stroke:none"
         transform="matrix(0.13333333,0,0,-0.13333333,0,112.89333)" />
      <path
         id="path21"
         d="M 769.734,0.765625 H 711.098 V 92.3828 h 58.636 V 74.5156 H 729.727 V 55.582 h 38.632 V 37.7148 H 729.727 V 18.6289 h 40.007 V 0.765625"
         style="fill:#040606;fill-opacity:1;fill-rule:nonzero;stroke:none"
         transform="matrix(0.13333333,0,0,-0.13333333,0,112.89333)" />
      <path
         id="path22"
         d="M 843.027,0.765625 H 785.309 V 92.3828 h 18.629 V 18.6289 h 39.089 V 0.765625"
         style="fill:#040606;fill-opacity:1;fill-rule:nonzero;stroke:none"
         transform="matrix(0.13333333,0,0,-0.13333333,0,112.89333)" />
      <path
         id="path23"
         d="M 968.543,0.765625 H 949.91 V 55.8867 c -1.933,-4.0703 -4.707,-9.9023 -8.32,-17.4844 -3.613,-7.582 -6.133,-12.8515 -7.559,-15.8046 H 921.816 L 906.09,55.7344 V 0.765625 H 887.461 V 92.3828 h 20.309 l 20.46,-41.5351 c 1.833,3.664 5.04,10.2539 9.618,19.7734 4.582,9.5195 8.093,16.7734 10.539,21.7617 h 20.156 V 0.765625"
         style="fill:#040606;fill-opacity:1;fill-rule:nonzero;stroke:none"
         transform="matrix(0.13333333,0,0,-0.13333333,0,112.89333)" />
      <path
         id="path24"
         d="m 1052.52,23.5156 c 0,-3.7695 -0.86,-6.9218 -2.59,-9.4687 -1.12,-1.6289 -2.85,-3.6641 -5.19,-6.10549 -2.35,-2.44532 -4.28,-4.125 -5.81,-5.03907 C 1035.47,0.96875 1032.11,0 1028.86,0 h -20.31 c -3.46,0 -6.82,0.96875 -10.081,2.90234 -1.528,0.91407 -3.489,2.61719 -5.879,5.11329 -2.391,2.49607 -4.149,4.50777 -5.266,6.03127 -1.734,2.5469 -2.597,5.6992 -2.597,9.4687 v 68.8672 h 18.633 V 23.668 c 2.44,-3.0547 4.32,-4.9883 5.65,-5.8008 h 19.39 c 1.93,1.2187 3.76,3.1016 5.5,5.6484 v 68.8672 h 18.62 V 23.5156"
         style="fill:#040606;fill-opacity:1;fill-rule:nonzero;stroke:none"
         transform="matrix(0.13333333,0,0,-0.13333333,0,112.89333)" />
      <path
         id="path25"
         d="m 1133.61,0.765625 h -18.78 L 1085.2,54.6641 V 0.765625 h -18.63 V 92.3828 h 19.09 l 29.32,-54.668 v 54.668 h 18.63 V 0.765625"
         style="fill:#040606;fill-opacity:1;fill-rule:nonzero;stroke:none"
         transform="matrix(0.13333333,0,0,-0.13333333,0,112.89333)" />
      <path
         id="path26"
         d="m 1198.04,24.4336 v 43.8242 c -1.01,2.543 -2.9,4.6289 -5.65,6.2578 h -24.27 V 18.6289 h 24.27 c 2.45,1.4258 4.33,3.3594 5.65,5.8047 z m 18.63,-0.6133 c 0,-3.664 -0.81,-6.7695 -2.44,-9.3125 -1.12,-1.6289 -2.88,-3.6172 -5.27,-5.95702 -2.39,-2.34375 -4.4,-3.96875 -6.03,-4.88672 -3.66,-1.93359 -6.92,-2.898435 -9.77,-2.898435 h -43.67 V 92.3828 h 43.67 c 3.76,0 7.12,-0.918 10.08,-2.75 3.15,-2.0351 6.76,-5.75 10.84,-11.1484 1.73,-2.4414 2.59,-5.5977 2.59,-9.4649 V 23.8203"
         style="fill:#040606;fill-opacity:1;fill-rule:nonzero;stroke:none"
         transform="matrix(0.13333333,0,0,-0.13333333,0,112.89333)" />
      <path
         id="path27"
         d="m 1281.42,23.668 v 45.8086 c -1.33,2.4453 -3.11,4.3281 -5.35,5.6523 h -20 c -2.24,-1.6328 -4.12,-3.5664 -5.65,-5.8047 V 23.668 c 2.03,-2.7461 3.87,-4.6328 5.5,-5.6485 h 20 c 1.93,1.2188 3.76,3.1016 5.5,5.6485 z m 18.78,-0.1524 c 0,-3.664 -0.92,-6.8203 -2.75,-9.4687 -1.12,-1.6289 -2.88,-3.6641 -5.27,-6.10549 -2.39,-2.44532 -4.3,-4.125 -5.72,-5.03907 C 1283.2,0.96875 1279.84,0 1276.38,0 h -20.77 c -3.46,0 -6.82,0.96875 -10.08,2.90234 -1.52,0.91407 -3.49,2.61719 -5.88,5.11329 -2.39,2.49607 -4.15,4.50777 -5.26,6.03127 -1.74,2.5469 -2.6,5.6992 -2.6,9.4687 v 45.961 c 0,3.8672 0.86,7.0742 2.6,9.6211 1.11,1.5273 2.87,3.5117 5.26,5.957 2.39,2.4414 4.36,4.1211 5.88,5.0391 3.26,1.9296 6.62,2.8984 10.08,2.8984 h 20.77 c 3.46,0 6.82,-0.9688 10.08,-2.8984 2.64,-1.6329 6.31,-5.2969 10.99,-10.9961 1.83,-2.6485 2.75,-5.8555 2.75,-9.6211 v -45.961"
         style="fill:#040606;fill-opacity:1;fill-rule:nonzero;stroke:none"
         transform="matrix(0.13333333,0,0,-0.13333333,0,112.89333)" />
    </g>
  </g>
</svg>
